<?xml version="1.0" encoding="UTF-8" standalone="no"?>
<!-- Created with Inkscape (http://www.inkscape.org/) -->

<svg
   xmlns:dc="http://purl.org/dc/elements/1.1/"
   xmlns:cc="http://creativecommons.org/ns#"
   xmlns:rdf="http://www.w3.org/1999/02/22-rdf-syntax-ns#"
   xmlns:svg="http://www.w3.org/2000/svg"
   xmlns="http://www.w3.org/2000/svg"
   xmlns:sodipodi="http://sodipodi.sourceforge.net/DTD/sodipodi-0.dtd"
   xmlns:inkscape="http://www.inkscape.org/namespaces/inkscape"
   id="svg2"
   version="1.1"
   inkscape:version="0.48.1 "
   width="765"
   height="990"
   sodipodi:docname="ceg_cherished_leader.svg">
  <title
     id="title3003">Cherished Leader</title>
  <metadata
     id="metadata8">
    <rdf:RDF>
      <cc:Work
         rdf:about="">
        <dc:format>image/svg+xml</dc:format>
        <dc:type
           rdf:resource="http://purl.org/dc/dcmitype/StillImage" />
        <dc:title>Cherished Leader</dc:title>
      </cc:Work>
    </rdf:RDF>
  </metadata>
  <defs
     id="defs6" />
  <sodipodi:namedview
     pagecolor="#ffffff"
     bordercolor="#666666"
     borderopacity="1"
     objecttolerance="10"
     gridtolerance="10"
     guidetolerance="10"
     inkscape:pageopacity="0"
     inkscape:pageshadow="2"
     inkscape:window-width="1169"
     inkscape:window-height="894"
     id="namedview4"
     showgrid="false"
     inkscape:zoom="0.68720379"
     inkscape:cx="259.14694"
     inkscape:cy="474.38513"
     inkscape:window-x="0"
     inkscape:window-y="0"
     inkscape:window-maximized="0"
     inkscape:current-layer="g2987" />
  <g
     id="g2987"
     transform="matrix(4.2468503,0,0,4.2468503,55.547646,39.705489)">
    <path
       style="fill:#d0d0d0"
       d="M 36.811942,198.04049 C 38.015374,196.41276 39,194.89318 39,194.66364 c 0,-0.22955 -2.243908,-1.38266 -4.986463,-2.56247 -6.096469,-2.62263 -7.492207,-5.8983 -4.066824,-9.54445 l 2.19132,-2.33255 -3.569017,-7.08712 C 26.606057,169.23913 25,164.85431 25,163.393 c 0,-1.46131 -1.001747,-4.27779 -2.226105,-6.25885 -1.939688,-3.13848 -2.241617,-5.0836 -2.346671,-15.11803 C 20.360913,135.68225 19.78766,129.23321 19.153329,127.6849 18.518998,126.1366 18,123.47203 18,121.76364 c 0,-1.70839 -0.7875,-3.9768 -1.75,-5.04091 -1.230715,-1.36064 -1.750631,-3.60952 -1.752125,-7.57874 -0.0021,-5.64078 -1.325589,-8.91072 -7.6923641,-19.005819 C 3.8501892,85.452239 3.1125114,73.675318 5.4140236,67.923272 6.551392,65.080709 6.8845656,62.413034 6.4577144,59.566587 5.9750157,56.347721 6.212244,55.068743 7.4884407,54.009593 c 0.9117544,-0.756689 2.5770403,-3.205902 3.7006353,-5.442695 1.123595,-2.236794 4.128205,-5.851673 6.676912,-8.033064 2.548707,-2.181391 7.74351,-7.251687 11.544008,-11.267324 3.800498,-4.015636 8.328725,-8.17798 10.062727,-9.249652 1.734002,-1.071672 3.757543,-3.078597 4.496759,-4.459834 0.774255,-1.446709 3.185256,-3.214511 5.687273,-4.170039 C 52.04554,10.474699 54,9.3164583 54,8.8131154 54,7.259548 60.331252,5.2047799 63.58018,5.7039279 c 2.035165,0.3126718 4.240425,-0.2341019 6.5,-1.6116147 7.249433,-4.41949794 27.034123,-1.1226557 34.32332,5.7195011 4.05104,3.8025967 13.38921,10.4376377 16.75073,11.9018807 3.02989,1.319791 4.03706,2.611963 11.0043,14.118308 3.14332,5.191174 6.49925,9.33773 8.90262,11 5.11475,3.537568 6.93783,7.608273 7.34072,16.390818 0.1836,4.002448 0.86407,10.74188 1.51215,14.976514 1.08865,7.113392 1.0226,8.00457 -0.86785,11.710162 C 147.92078,92.115452 147,95.221228 147,96.811223 c 0,1.589994 -1.16944,5.090307 -2.59875,7.778477 l -2.59875,4.88758 2.01041,4.01136 c 2.5336,5.05527 4.58888,16.40552 3.70192,20.44382 -0.37103,1.68931 -0.79683,7.64026 -0.94622,13.22433 -0.23105,8.63666 -0.55513,10.35659 -2.17011,11.51703 -5.6326,4.04727 -5.61747,4.01079 -5.24802,12.65273 0.29369,6.8697 0.70894,8.53495 2.59952,10.42458 6.1596,5.76537 -5.38872,12.03386 -10.109,12.24887 -4.57077,0 -6.30807,1.7777 -6.98734,7.14984 -3.78886,5.99047 -5.22308,4.21112 -10.53612,0.4228 -0.48536,-0.29996 -2.01884,0.34848 -3.40773,1.44099 -1.3889,1.0925 -2.97948,1.98637 -3.53463,1.98637 -0.55515,0 -2.98382,0.84635 -5.39705,1.88078 -6.206607,2.66046 -17.638867,3.53455 -22.467539,1.71783 -2.095825,-0.78853 -6.525156,-1.64424 -9.842958,-1.90159 -11.868705,2.29309 -43.288332,-1.2686 -32.655691,-8.65653 z m 63.201338,-54.07255 c 0.69076,-1.66764 1.08285,-3.14353 0.87132,-3.27976 -0.21153,-0.13622 -2.403175,-0.94877 -4.870322,-1.80566 -4.08416,-1.41851 -4.559409,-1.93059 -5.308849,-5.72025 C 90.002657,129.60859 89.516735,129 87.382134,129 c -1.537066,0 -2.242801,-0.41643 -1.832057,-1.08103 0.367462,-0.59456 1.744019,-0.81099 3.059017,-0.48095 3.268128,0.82025 3.174362,-1.68077 -0.1293,-3.44883 -3.201982,-1.71365 -4.130476,-0.75114 -4.999326,5.18249 -0.6601,4.50801 -0.573163,4.72903 2.481513,6.30866 1.741068,0.90034 2.98829,2.17309 2.771605,2.82832 -0.499271,1.50975 -15.307149,2.80397 -18.44255,1.61189 -2.945865,-1.12001 -3.121688,1.01775 -0.294163,3.57662 1.762181,1.59475 3.218492,1.7324 12.39099,1.17118 8.52543,-0.52164 10.615512,-0.36921 11.625572,0.84784 2.006025,2.41711 4.638742,1.73774 5.999845,-1.54825 z m -49.439728,-8.45058 c 1.365453,-1.36546 3.315763,-4.40296 4.334021,-6.75 2.405064,-5.54358 5.39391,-8.12755 11.812907,-10.21268 3.293279,-1.06978 6.199963,-2.86953 7.873744,-4.87524 3.463327,-4.15015 6.30117,-5.64435 9.508103,-5.00628 4.471275,0.88963 9.022762,-7.14807 5.846392,-10.324441 -0.578205,-0.578205 -1.680575,-3.43682 -2.449711,-6.352478 -1.19245,-4.520369 -1.194603,-5.789021 -0.01462,-8.613128 1.764038,-4.221939 4.743025,-4.986995 11.548733,-2.965917 5.111619,1.517987 5.335189,1.501976 6.724519,-0.48157 1.14114,-1.629208 2.08639,-1.917571 4.58974,-1.400181 C 114.31531,79.355533 116,81.477703 116,85.655946 116,89.653492 113.89287,91 107.63717,91 c -4.26497,0 -5.02732,0.399266 -8.33138,4.363366 -0.656815,0.788026 -1.781815,1.639537 -2.5,1.892248 -1.002625,0.352798 -0.844879,1.247099 0.679446,3.851926 1.091879,1.86585 2.216879,5.86745 2.5,8.89244 l 0.514764,5.49997 5.94719,2.10494 c 3.77067,1.33458 6.9081,3.25595 8.57282,5.25002 3.14144,3.76293 4.97999,4.02941 4.97999,0.72182 0,-1.33281 1.0125,-3.69697 2.25,-5.25371 4.00704,-5.04074 4.45184,-6.66597 4.74134,-17.3242 0.40962,-15.080421 0.22837,-17.713017 -1.42988,-20.76888 L 124.08008,77.5 l -0.04,2.690983 c -0.0664,4.465186 -1.94895,4.261883 -6.72884,-0.726683 l -4.54451,-4.742911 -6.67657,1.19317 c -7.278191,1.300685 -11.634611,0.436052 -12.774893,-2.535474 -1.100956,-2.869046 1.052648,-4.602348 8.728293,-7.02486 8.60449,-2.715663 11.80192,-2.920645 14.51535,-0.930557 1.69231,1.241181 2.16545,1.221315 3.69113,-0.154987 4.02605,-3.631853 0.89485,-11.842979 -5.78909,-15.181103 C 112.00741,48.862241 110,47.268746 110,46.546478 c 0,-1.459101 -3.03454,-2.512021 -7.29966,-2.532823 -1.53981,-0.0075 -4.014813,-0.6329 -5.5,-1.389756 C 93.099669,40.534185 74.015348,39.744629 71.55887,41.56306 70.491249,42.353377 68.331402,43 66.75921,43 c -1.572191,0 -4.165136,0.675673 -5.7621,1.501494 -1.596964,0.825822 -5.271892,1.842329 -8.166507,2.258904 -5.6206,0.808883 -5.026371,0.241491 -11.994842,11.453096 C 38.270642,62.340527 37.241856,66.823284 34.9178,84 c -1.126181,8.32342 -1.116101,7.432892 -0.169786,15 0.447076,3.575 1.23152,7.173 1.743208,7.99556 0.511689,0.82256 1.273539,3.52256 1.693001,6 2.156707,12.73802 3.464766,17.96896 4.913777,19.65027 0.878901,1.01979 1.877278,2.64167 2.218616,3.60417 0.851452,2.40091 2.329349,2.19494 5.256936,-0.73264 z M 64.5,94 C 63.4,93.527314 60.619643,93.108942 58.321429,93.070285 54.343194,93.00337 51,91.082114 51,88.86283 51,86.934648 53.087208,84 54.458587,84 c 0.763521,0 3.476224,-1.593809 6.028228,-3.541798 4.44478,-3.392777 4.789626,-3.487696 8.195997,-2.255936 C 72.421785,79.554296 76,83.246171 76,85.75188 76,87.278579 68.585,95.055121 67.248855,94.929715 66.836985,94.891058 65.6,94.472686 64.5,94 z M 43,78.078947 c 0,-2.462456 8.386024,-10.886745 11.653707,-11.706881 1.371577,-0.344244 3.606767,-0.118786 4.967088,0.501018 C 60.981116,67.492888 63.647932,68 65.547053,68 c 4.121486,0 7.735872,3.06532 6.753207,5.727319 -1.025873,2.779047 -2.598161,3.31306 -4.551049,1.54572 C 66.372004,74.026684 65.6782,73.9218 64.776371,74.823629 64.129367,75.470633 61.927307,76 59.882905,76 57.838503,76 54.066196,76.9 51.5,78 45.536582,80.556219 43,80.579779 43,78.078947 z"
       id="path3001"
       inkscape:connector-curvature="0"
       sodipodi:nodetypes="cssscsssssssssssssssssssssssssssssscsssssccccssssccscssssssssssssssssssssssssssssssscsssssscsscssssssssssssssssssssssssssssssssssssssss" />
    <path
       style="fill:#afafaf"
       d="m 36.914322,202.83991 c -0.881433,-1.64697 -0.669506,-2.4716 1.126514,-4.38338 2.913785,-3.10158 2.011163,-5.07667 -3.375221,-7.38554 -5.459134,-2.34006 -6.469652,-4.58623 -3.490114,-7.7578 l 2.23204,-2.3759 -3.703771,-7.48519 C 27.666697,169.33525 26,164.72448 26,163.20596 c 0,-1.51852 -0.732996,-3.80745 -1.62888,-5.0865 -2.921827,-4.17149 -4.205893,-10.27518 -3.328845,-15.82336 0.555572,-3.51452 0.360773,-7.31 -0.614386,-11.97077 C 19.64255,126.57181 19,122.42869 19,121.11841 c 0,-1.31029 -0.938942,-3.90158 -2.086537,-5.75843 -1.589248,-2.57146 -1.934555,-4.27567 -1.448845,-7.15055 C 16.13679,104.23087 13.731537,98.645914 8.1165883,91.147423 5.993978,88.31278 5.5416892,86.446725 5.1889312,79.068487 4.8636375,72.264687 5.1390769,69.631735 6.439131,67.117708 7.6287513,64.817236 7.9237496,62.674332 7.4686244,59.63934 6.9746958,56.345588 7.2048875,55.074848 8.4884407,54.009593 9.4001951,53.252904 11.03136,50.898692 12.113251,48.77801 13.195142,46.657329 15.974752,43.26544 18.290163,41.240479 20.605573,39.215519 26.325,33.786431 31,29.175839 46.904865,13.490097 48.578318,12 50.289317,12 c 0.940876,0 2.576621,-0.865938 3.634989,-1.924306 3.200289,-3.2002887 5.907469,-4.1978792 9.541694,-3.5160946 2.689355,0.504526 4.156113,0.1327587 6.735986,-1.707316 C 72.890534,2.9346968 74.701186,2.5138516 80,2.5749557 c 8.494449,0.097955 19.425051,3.6842565 24,7.8743363 5.35986,4.908964 11.22041,9.217653 15.98634,11.753202 3.47744,1.850054 5.36629,4.050308 9.69856,11.297506 3.26338,5.459119 7.72788,11.189304 11.34758,14.564643 6.30246,5.87697 6.09276,5.333638 6.53628,16.935357 0.0946,2.475 0.69342,8.204818 1.33067,12.732929 1.07078,7.608681 1.00479,8.534497 -0.8704,12.210162 C 146.91306,92.130569 146,95.091117 146,96.522087 c 0,1.43097 -1.13182,4.994233 -2.51515,7.918353 l -2.51515,5.31659 2.70811,5.21976 c 2.51375,4.84515 2.69558,6.02012 2.53351,16.37149 -0.3443,21.99097 -0.65906,25.76198 -2.22538,26.66146 -5.08903,2.92246 -5.30763,3.41587 -5.58121,12.5976 -0.24888,8.35257 -0.10949,9.05605 2.29505,11.58296 1.52133,1.59876 2.31718,3.32312 1.9615,4.25 -0.9077,2.36544 -2.35782,1.882 -4.32035,-1.4403 -0.97468,-1.65 -2.07454,-3 -2.44413,-3 -0.36959,0 -0.61006,2.35504 -0.53439,5.23341 l 0.13759,5.23341 -4.16346,0.57232 C 126.08368,193.76121 124,195.47746 124,199.08198 c -4.07111,10.97429 -10.20037,0.32815 -13.92126,3.2623 -2.594,2.20877 -15.592438,6.53902 -21.564476,7.18391 -4.471177,0.48282 -6.203768,0.2194 -8.791444,-1.33665 -4.299742,-2.58558 -17.062669,-3.6919 -18.775931,-1.62755 -21.075457,-2.29089 -9.25208,-0.65604 -24.032567,-3.72408 z M 100.36471,145.75 c 1.70612,-2.72096 3.0619,-9.75 1.8806,-9.75 -0.46492,0 -1.35236,0.50705 -1.97209,1.12678 -0.635398,0.6354 -2.246306,0.84581 -3.693905,0.48248 -2.947182,-0.73969 -5.746927,-6.25231 -4.8729,-9.59459 0.362133,-1.3848 -0.240266,-2.95403 -1.751537,-4.5627 -4.042274,-4.3028 -5.491328,-3.22583 -7.965233,5.91995 -1.270418,4.69661 -1.232312,4.93643 1.059004,6.66478 l 2.376842,1.79285 -3.962745,0.80523 c -2.179511,0.44288 -6.325246,0.73218 -9.212746,0.64289 -6.255135,-0.19342 -6.823617,1.22043 -2.091666,5.20211 2.221717,1.86945 3.845231,2.48516 5.474602,2.07621 6.511031,-1.63416 13.950126,-1.7039 16.867064,-0.15811 4.107775,2.17685 6.201681,2.00436 7.86471,-0.64788 z m -50.321723,-7.94683 c 1.758258,-1.75826 4.07318,-5.24576 5.144272,-7.75 2.705617,-6.32581 5.380994,-8.84747 11.229472,-10.58429 3.249866,-0.9651 6.505045,-2.93854 9.184076,-5.56781 4.999172,-4.90632 8.699363,-5.14372 9.22135,-0.59164 0.230816,2.01287 0.797873,2.71162 2,2.46446 1.168799,-0.24031 1.590236,-1.17028 1.389085,-3.06523 -0.167743,-1.58023 0.818982,-4.61046 2.354459,-7.23056 2.441647,-4.16635 2.527722,-4.68657 1.12872,-6.821719 -2.367315,-3.61298 -4.518528,-11.920915 -3.674569,-14.191099 1.573418,-4.232367 3.350173,-4.772241 10.407683,-3.162414 5.554355,1.266955 6.673625,1.280166 7.661025,0.09043 1.41856,-1.709269 6.07866,-1.82608 7.71144,-0.193297 1.54692,1.546918 1.54692,6.053082 0,7.6 -0.66,0.66 -3.3641,1.2 -6.0091,1.2 -3.97918,0 -5.35085,0.517721 -7.948316,3 -1.726567,1.65 -3.522471,3 -3.990898,3 -1.509821,0 -0.908702,3.171678 1.268907,6.695119 1.504552,2.43442 1.963654,4.3983 1.58036,6.76026 -0.751184,4.62901 1.433397,7.30349 7.105647,8.69912 3.4817,0.85665 5.78714,2.33175 8.9299,5.71364 4.5608,4.90784 5.90844,4.82028 6.86338,-0.44593 0.28969,-1.59753 1.11896,-3.58357 1.84283,-4.41341 3.2544,-3.73086 4.31227,-7.79133 4.56157,-17.5088 C 128.3839,86.702414 128.29095,85.403119 126.4457,79.71465 124.09578,72.470384 123,71.702489 123,77.3 c 0,2.585 -0.37989,4.7 -0.8442,4.7 -0.46431,0 -2.71532,-1.889826 -5.00224,-4.199613 l -4.15805,-4.199613 -5.80795,1.199613 c -7.90038,1.631797 -9.58638,1.521391 -11.653854,-0.763142 -2.710226,-2.994766 -1.426185,-4.364358 6.377334,-6.802231 8.82003,-2.755437 12.12179,-2.80843 15.08085,-0.242047 2.17107,1.882959 2.37095,1.896759 3.62121,0.25 C 123.25376,63.764846 121.26313,51 118.08008,51 c -0.47772,0 -2.3379,-1.372564 -4.13376,-3.050142 -4.41891,-4.127884 -6.15869,-4.943765 -10.63058,-4.985293 C 101.21708,42.945075 98.375,42.286021 97,41.5 95.438496,40.607364 91.565984,40.057568 86.684259,40.035435 c -4.298658,-0.01949 -8.666525,-0.49076 -9.706371,-1.047269 -1.428139,-0.764317 -2.696326,-0.520609 -5.184259,0.996262 -1.811496,1.104453 -4.328476,2.009778 -5.593289,2.011834 -1.264813,0.0021 -3.514813,0.625526 -5,1.38549 C 59.715153,44.141716 56.475,45.074589 54,45.454803 c -7.394807,1.136004 -7.934156,1.481747 -10.639388,6.820266 -1.428984,2.819963 -3.421416,6.274194 -4.427628,7.676068 -1.67811,2.337978 -3.262947,10.35094 -4.657592,23.548863 -0.290596,2.75 -0.952667,5.533735 -1.471269,6.186078 -0.597052,0.751025 -0.550658,1.919008 0.126483,3.184258 0.588167,1.099 1.08534,4.390265 1.104829,7.313924 0.01949,2.92366 0.678544,6.44074 1.464565,7.81574 0.786021,1.375 1.445075,3.68254 1.464565,5.12788 0.01949,1.44533 0.710435,4.24337 1.535435,6.21788 0.825,1.9745 1.510006,5.29196 1.522236,7.37212 0.01297,2.20559 0.837372,4.82421 1.977764,6.28212 1.075541,1.375 1.965534,3.4375 1.977764,4.58333 0.04653,4.35948 1.859854,4.42521 6.065223,0.21984 z M 60.213178,92.09695 c -10.484051,-0.997364 -10.427834,-4.495976 0.160473,-9.986803 5.976718,-3.099373 6.798863,-3.28133 9.594328,-2.123411 3.189869,1.321287 5.41172,6.053364 3.189962,6.79395 C 72.521073,86.992976 72,87.734422 72,88.428346 c 0,1.493296 -3.258022,4.637773 -4.578741,4.419167 -0.506692,-0.08387 -3.750329,-0.421621 -7.208081,-0.750563 z M 45,77.368421 c 0,-0.897368 2.019333,-3.650911 4.487406,-6.118985 3.857104,-3.857104 4.87544,-4.389263 7.25,-3.788682 1.519427,0.384299 5.007906,1.000342 7.752177,1.368985 3.625281,0.486992 5.080838,1.148764 5.323324,2.420261 0.258113,1.353436 -0.349324,1.75 -2.680566,1.75 -1.657869,0 -3.318612,0.492376 -3.690541,1.09417 -0.371929,0.601793 -1.800164,0.879317 -3.173856,0.616719 -1.376725,-0.263178 -5.129882,0.592132 -8.362913,1.90583 C 44.934781,79.448985 45,79.441885 45,77.368421 z"
       id="path2999"
       inkscape:connector-curvature="0"
       sodipodi:nodetypes="cssscsssssssssssssssssssssssssssssscssssssssscsccssccsssssssscsssssssssssssssssssssssssssssssssscsssssssssssscssssssssssssssssssssssssssssssss" />
    <path
       style="fill:#8f8f8f"
       d="M 38.698092,198.8356 C 39.414141,198.24133 40,196.65991 40,195.32132 c 0,-1.92762 -0.948243,-2.85323 -4.559429,-4.45063 -5.533194,-2.4476 -6.388085,-4.23321 -3.499046,-7.30845 l 2.194552,-2.33599 -4.068038,-8.09093 C 27.830617,168.68531 26,163.92326 26,162.55299 c 0,-1.37027 -1.0125,-4.41776 -2.25,-6.7722 -1.927581,-3.66736 -2.209685,-5.54945 -1.96866,-13.13415 0.17314,-5.44845 -0.28576,-11.06697 -1.193219,-14.60913 -1.555341,-6.07109 -1.172461,-9.8455 1.175712,-11.59012 1.210468,-0.89934 1.185199,-1.2448 -0.173533,-2.37245 -1.266674,-1.05124 -1.893142,-1.06849 -3.078467,-0.0848 -1.984161,1.64671 -2.893352,-0.64894 -2.275307,-5.74501 0.455447,-3.75538 -1.888701,-9.117224 -7.8788722,-18.021599 -3.219411,-4.785648 -4.1415774,-15.122247 -1.933817,-21.676229 0.9351301,-2.776038 1.5812511,-6.721401 1.4358245,-8.767472 -0.185262,-2.606533 0.3464096,-4.402595 1.7761249,-6 1.1222948,-1.253929 2.6203718,-3.748196 3.3290588,-5.542817 0.708686,-1.79462 3.575232,-5.16962 6.370102,-7.5 C 22.129816,38.406674 29.7531,31.2125 36.275577,24.75 42.798055,18.2875 48.717459,13 49.429809,13 50.142159,13 52.474368,11.606374 54.612495,9.9030541 58.024567,7.1848578 59.029282,6.8780783 62.827819,7.39459 66.441484,7.8859636 67.694671,7.5719315 70.42221,5.4915359 72.987588,3.5348266 74.868182,3 79.183119,3 c 7.42121,0 21.536521,4.5066949 24.797801,7.917366 3.19408,3.340402 12.40734,10.120763 16.42335,12.086526 1.68984,0.82714 4.48771,3.75214 6.21751,6.5 8.96026,14.23376 10.91545,16.810155 14.4504,19.041672 4.65587,2.939124 5.47407,5.59882 6.41068,20.838951 0.36791,5.986483 1.09542,12.006277 1.61669,13.377319 0.73061,1.921653 0.4841,3.278649 -1.07589,5.922645 -1.11301,1.886413 -2.02806,4.641619 -2.03343,6.122681 -0.005,1.481062 -1.13037,5.100023 -2.5,8.04214 -2.98469,6.41145 -3.04276,7.49419 -0.61852,11.53267 1.02944,1.71491 2.21346,5.59303 2.63116,8.61803 0.82997,6.01065 0.83016,5.48537 -0.008,21.9741 l -0.58311,11.4741 -3.45598,2.8487 C 138.05799,162.09781 138,162.27542 138,169.88167 c 0,5.25395 -0.47107,8.35888 -1.4682,9.6772 -0.8075,1.06762 -1.4894,3.74113 -1.51531,5.94113 -0.0617,5.24175 -0.70684,6.07546 -5.74948,7.43047 -4.31264,1.15886 -6.26701,3.33202 -6.26701,6.9686 0,1.11681 -0.98986,2.56032 -2.1997,3.20781 -1.87967,1.00597 -2.40662,0.8656 -3.62197,-0.96482 -1.757,-2.64618 -3.92221,-2.68903 -7.17833,-0.14206 -1.375,1.07554 -2.98492,1.96553 -3.57759,1.97776 -0.59268,0.0122 -3.83751,1.14369 -7.210737,2.51436 -8.853099,3.59734 -14.543666,4.08385 -18.581087,1.58859 C 78.136154,206.53906 75.11904,205.9742 67.635624,205.6478 57.97342,205.22636 56.5,204.84294 56.5,202.75 c 0,-0.59583 -0.5625,-1.27083 -1.25,-1.5 -0.6875,-0.22917 -1.25,0.0708 -1.25,0.66667 3.355605,-1.62574 -14.684774,1.52471 -15.301908,-3.08107 z M 100.34563,146.75 c 1.57269,-1.4401 2.68455,-3.82773 3.08887,-6.6331 l 0.6317,-4.3831 -4.0584,0.64896 c -3.338397,0.53383 -4.169578,0.33568 -4.685097,-1.1169 -0.344686,-0.97122 -1.287879,-2.5366 -2.095984,-3.47861 -0.808105,-0.94202 -1.191436,-2.43681 -0.851846,-3.32177 C 93.15559,126.43096 88.375241,120 86.0822,120 84.465907,120 82,124.892 82,128.09849 c 0,0.80107 -0.779795,2.56913 -1.732878,3.929 -0.953082,1.35988 -1.608877,3.20641 -1.457322,4.10339 0.348114,2.06032 -3.69297,3.16926 -8.359115,2.29389 -5.042867,-0.94605 -5.848626,1.93698 -1.601852,5.73147 3.370113,3.0112 4.612785,3.17896 14.452316,1.95105 3.942721,-0.49202 6.345385,-0.34332 7.5,0.46417 1.463587,1.02358 3.854127,1.8883 6.393087,2.31254 0.38183,0.0638 1.799958,-0.8965 3.151394,-2.134 z M 49.418213,142.39301 C 50.288196,142.05917 51,141.27565 51,140.65187 c 0,-2.46753 7.316909,-15.75599 9.713656,-17.64127 1.401091,-1.1021 4.329478,-2.48367 6.507527,-3.07016 2.178048,-0.58649 5.882126,-2.83801 8.231283,-5.00339 C 80.426297,110.35233 83,109.8503 83,113.46482 c 0,3.41338 3.221363,5.05305 5.336247,2.71613 0.921855,-1.01864 1.354848,-2.6462 1.032215,-3.87995 -0.346497,-1.32501 0.48758,-3.90559 2.215104,-6.85338 l 2.77087,-4.72813 1.822782,2.25104 C 98.857936,106.28107 98.361249,112 95.393011,112 94.626855,112 94,112.45 94,113 c 0,0.55 0.716522,1 1.592271,1 0.875749,0 2.734495,0.89847 4.130547,1.99661 1.396052,1.09813 4.392032,2.4785 6.657732,3.06748 2.79029,0.72536 5.4967,2.54566 8.38795,5.64164 4.0117,4.29577 4.37741,4.4722 6.07874,2.93251 0.99563,-0.90103 2.33731,-1.63824 2.9815,-1.63824 1.35473,0 1.58945,-2.62351 0.3057,-3.41691 -0.47606,-0.29423 0.24157,-2.84833 1.59475,-5.67579 2.12557,-4.4414 2.50891,-6.85968 2.81745,-17.774073 0.37922,-13.414603 -0.81926,-20.395225 -4.6258,-26.943239 -1.52719,-2.627059 -1.796,-4.400809 -1.30286,-8.596698 0.75644,-6.436121 -1.13902,-11.056517 -5.87897,-14.330642 -1.78145,-1.230544 -4.4361,-3.200737 -5.89921,-4.378206 -1.60862,-1.294572 -4.47231,-2.276516 -7.24434,-2.484042 -2.52128,-0.188754 -5.850201,-0.997892 -7.397601,-1.798083 -1.652363,-0.85447 -5.515105,-1.439308 -9.359858,-1.417128 -3.600522,0.02077 -7.980302,-0.27717 -9.732843,-0.662092 -2.195806,-0.48228 -3.930745,-0.212171 -5.580553,0.868824 -2.426945,1.590196 -6.967691,2.952514 -16.024605,4.807716 -7.588408,1.554396 -9.439529,2.521127 -11.296318,5.899402 -0.937025,1.704839 -2.985088,5.082254 -4.551251,7.505365 -1.864354,2.884463 -3.137381,6.561934 -3.686917,10.650627 -0.461642,3.434733 -1.506569,9.871367 -2.322061,14.303632 C 31.798496,92.586164 32.89024,101.46824 38.069928,118.571 38.581467,120.26005 39,123.19171 39,125.08581 c 0,1.89409 0.9,5.12301 2,7.17537 1.1,2.05237 2,4.48527 2,5.40645 0,1.7418 2.742702,5.33237 4.0732,5.33237 0.419774,0 1.475029,-0.27314 2.345013,-0.60699 z M 89.918047,91.547635 c -2.092642,-4.730763 -1.920456,-7.47082 0.600969,-9.563417 1.110958,-0.922013 2.970136,-0.930203 8.106682,-0.03571 4.673432,0.813843 6.980252,0.845545 7.719712,0.106088 C 106.92543,81.474567 108.66965,81 110.22144,81 c 2.05007,0 3.13746,0.693588 3.97734,2.53694 1.63137,3.580452 -0.48577,5.364287 -7.25915,6.116332 -3.61828,0.401736 -6.2767,1.360352 -7.93963,2.862999 -1.375,1.242472 -3.522926,2.568229 -4.773169,2.946126 -1.980053,0.598488 -2.535653,0.0937 -4.308784,-3.914762 z M 58,91.064086 c -3.634804,-0.455632 -4.5,-0.94624 -4.5,-2.551721 0,-1.44526 1.818336,-2.913348 6.663633,-5.380085 9.895892,-5.03799 14.747011,-3.045629 11.072608,4.547534 C 69.327282,91.624684 67.072098,92.201295 58,91.064086 z m 59.05701,-14.162814 c -3.03152,-3.319081 -4.01448,-3.490528 -13.58593,-2.369627 -4.886435,0.572243 -6.278242,0.405637 -7.344546,-0.87918 -0.723588,-0.871872 -1.141723,-2.106899 -0.929187,-2.744506 0.537455,-1.612364 11.450833,-4.875416 16.365563,-4.893231 5.28249,-0.01915 9.35323,3.941187 10.14895,9.873692 0.67754,5.051425 -0.69367,5.349788 -4.65485,1.012852 z M 47.559311,74.269136 C 50.764059,69.378073 53.17123,67.914745 57,68.530109 c 1.925,0.309388 5.4125,0.811994 7.75,1.116901 2.3375,0.304908 4.25,0.937913 4.25,1.40668 0,1.072451 -6.524627,2.921822 -10.5,2.976168 -1.65,0.02256 -4.125,0.684121 -5.5,1.470142 -1.375,0.786021 -3.564254,1.445075 -4.86501,1.464565 -2.346876,0.03516 -2.35129,0.0145 -0.575679,-2.695429 z M 139.17126,184.90262 c -0.72041,-1.15356 -1.06453,-2.34268 -0.76471,-2.6425 0.81697,-0.81698 3.59345,1.78092 3.59345,3.36232 0,2.0191 -1.32954,1.68078 -2.82874,-0.71982 z"
       id="path2997"
       inkscape:connector-curvature="0"
       sodipodi:nodetypes="cssscssssssscsssssssssssssssssssscssscccsssssssscsssssccsscssssssssssssssssssssssscssssssssscssssssssssssssssssssssssssssssssssssssssssssssssssssssss" />
    <path
       style="fill:#6e6e6e"
       d="m 37.99811,191.26526 c -1.769426,-0.97089 -4.132935,-2.4746 -5.252242,-3.34157 l -2.035103,-1.57632 2.212368,-2.06113 2.212369,-2.06114 -4.067751,-8.09035 C 28.830488,169.68505 27,164.64137 27,162.92657 c 0,-1.71481 -0.848931,-4.3123 -1.886514,-5.7722 -2.970813,-4.18001 -3.963321,-9.22047 -3.002074,-15.24606 0.635218,-3.98187 0.431675,-7.42427 -0.771725,-13.05177 -1.611746,-7.53705 -1.60398,-7.69284 0.557854,-11.19076 l 2.192354,-3.5473 -2.065614,-1.10549 c -1.136088,-0.60801 -2.455326,-0.86462 -2.931641,-0.57024 -1.584487,0.97926 -3.197835,-2.17544 -2.511347,-4.91062 0.68284,-2.72066 -1.389863,-7.38231 -7.7711689,-17.477911 C 6.345867,86.15562 6,84.641792 6,77.754559 6,72.568095 6.5340945,68.867855 7.5725763,66.859653 8.6315342,64.811854 8.9388915,62.597776 8.5136305,60.080678 8.0477426,57.323111 8.2940389,56.000859 9.4526973,55.039258 c 0.8638237,-0.71691 2.4066267,-3.193476 3.4284517,-5.50348 1.098164,-2.482583 4.039602,-6.006522 7.193368,-8.617892 2.934529,-2.429837 6.705751,-5.964327 8.380495,-7.854421 C 30.129755,31.17337 33.3,27.894345 35.5,25.776742 37.7,23.659138 41.567688,19.918079 44.094861,17.463277 46.622035,15.008475 49.372658,13 50.207357,13 c 0.834698,0 3.257602,-1.382753 5.384229,-3.0727836 3.719193,-2.9556428 5.444366,-3.2279751 9.518395,-1.5025541 1.02919,0.4358795 2.81288,-0.3294043 4.944477,-2.1214039 2.94007,-2.471671 4.109925,-2.7943922 9.890019,-2.7283027 8.982145,0.1027016 19.448267,3.652428 24.555523,8.3283363 6.2888,5.757665 11.87748,9.809761 15.77665,11.43894 2.20615,0.921789 4.24872,2.78366 5.29766,4.82899 4.26844,8.323078 11.89627,19.020764 14.53571,20.385671 4.4934,2.323626 6.02634,5.578753 6.42885,13.651345 0.19997,4.010469 0.84707,10.984373 1.43799,15.497564 0.98453,7.519382 0.90496,8.52195 -0.95123,11.985191 C 145.91153,91.769657 145,94.619397 145,96.023749 c 0,1.404352 -0.84333,4.207511 -1.87407,6.229241 -2.98485,5.85461 -3.18388,7.85444 -1.16331,11.68838 3.18767,6.04843 4.2092,14.67268 3.11092,26.26387 -0.54257,5.72638 -0.72781,11.40082 -0.41164,12.60987 0.43754,1.67314 -0.34229,3.03836 -3.26442,5.71493 -3.79429,3.47544 -3.84189,3.61141 -4.06064,11.60076 -0.15516,5.66632 -0.68725,8.59891 -1.7791,9.8054 C 134.70098,180.8829 134,183.27741 134,185.25731 134,188.88726 131.95187,192 129.56343,192 c -2.38026,0 -6.40271,3.99175 -7.06611,7.01219 -0.72645,3.3075 -2.41454,3.74338 -5.83013,1.5054 -2.04737,-1.34149 -2.63816,-1.27977 -6.21482,0.64931 -4.83087,2.60555 -18.294624,7.60061 -22.469073,8.33604 -2.158186,0.38022 -4.294797,-0.18179 -7.26989,-1.91225 -3.324166,-1.93351 -6.062797,-2.55098 -12.976202,-2.92573 -7.571898,-0.41044 -9.01152,-0.78216 -10.592943,-2.73513 -1.819448,-2.24692 -1.845431,-2.24894 -4.444705,-0.34498 -30.4371,0.71161 -1.125937,-2.78966 -14.701447,-10.31959 z M 101.73266,146.75 c 1.29382,-1.39871 2.21107,-3.95259 2.42431,-6.75 0.32419,-4.25279 0.19363,-4.51722 -2.37649,-4.81348 C 98.384941,134.79511 93,130.18609 93,127.67122 c 0,-1.03588 -1.33985,-3.57511 -2.977444,-5.64274 -2.909035,-3.67296 -2.933774,-3.79885 -1.07675,-5.47943 1.35075,-1.22242 1.771098,-2.63571 1.452789,-4.88458 -0.340289,-2.40416 0.180565,-3.86404 2.167829,-6.07612 2.099833,-2.33738 2.791979,-2.63323 3.509342,-1.5 1.485225,2.34624 1.051134,4.02399 -1.575766,6.09031 -3.210227,2.52517 -3.156298,3.61852 0.220283,4.46598 1.496156,0.37551 4.083656,1.46548 5.749997,2.42215 1.66635,0.95667 4.48402,2.04196 6.26149,2.41176 1.95124,0.40594 4.90265,2.42551 7.44864,5.0969 4.64954,4.87853 6.15934,5.27212 9.72067,2.53405 1.747,-1.34315 2.24031,-2.46084 1.81088,-4.10296 -0.32461,-1.24132 0.24557,-4.5631 1.26707,-7.38174 1.17751,-3.24911 1.9464,-8.41882 2.10078,-14.1248 0.39151,-14.470903 0.16403,-16.601561 -2.61574,-24.5 -1.45175,-4.125 -2.97338,-11.032858 -3.38138,-15.350795 l -0.74184,-7.850796 -5.42042,-4.924976 C 110.72201,43.241581 108.27886,42 103.39506,42 c -1.9111,0 -5.144309,-0.831848 -7.184898,-1.848552 -2.895177,-1.442493 -5.210132,-1.745299 -10.538667,-1.378505 -4.320884,0.297432 -7.240351,0.0582 -7.95,-0.651448 C 76.086096,36.486096 73.838246,36.779892 71,39 c -1.375,1.075541 -3.542084,1.965534 -4.815741,1.977764 -1.273658,0.01223 -3.221952,0.507225 -4.329542,1.099989 -1.10759,0.592764 -5.015423,1.631739 -8.684073,2.308833 -5.768899,1.064721 -6.940564,1.657379 -8.670459,4.385742 C 35.880412,62.367299 36.197116,61.497535 34.03968,77.5 c -0.667354,4.95 -1.62636,10.038216 -2.131125,11.307147 -0.576914,1.450309 -0.544661,3.004278 0.08685,4.184259 0.552529,1.032411 1.018911,4.494195 1.036402,7.692854 0.01925,3.52043 0.611261,6.58185 1.5,7.75687 C 35.339312,109.50875 36,111.5913 36,113.06901 c 0,1.47771 0.675,4.30224 1.5,6.27675 0.825,1.9745 1.5,5.31845 1.5,7.43099 0,2.11255 0.660688,4.7145 1.468197,5.78212 0.807508,1.06762 1.482508,2.92854 1.5,4.13537 0.01749,1.20683 1.130527,3.45683 2.473412,5 2.333654,2.6817 2.564126,2.73867 5.212548,1.28844 1.672553,-0.91587 3.035464,-2.69964 3.438267,-4.5 2.154842,-9.63125 7.774979,-16.56207 15.00972,-18.51018 2.206163,-0.59406 5.727743,-2.6309 7.825732,-4.52631 C 78.025865,113.55079 80.013805,112 80.345521,112 c 0.331715,0 1.332965,1.41137 2.224999,3.13637 1.525825,2.95062 1.494526,3.53989 -0.528473,9.9498 -1.508315,4.77912 -2.745908,7.00245 -4.145017,7.44651 -1.334433,0.42353 -1.895756,1.3504 -1.695847,2.8002 C 76.473333,137.3066 76.053784,137.5 71.5,137.5 c -4.591908,0 -5.022881,0.20405 -5.280343,2.5 -0.207747,1.85261 0.636312,3.22513 3.259474,5.30019 l 3.539817,2.80019 7.854248,-1.20235 c 6.941435,-1.06261 8.128383,-1.01033 10.213032,0.44981 3.382813,2.36942 8.149256,2.10176 10.646432,-0.59784 z M 91.923077,91.076923 C 90.315385,89.469231 89,87.244748 89,86.133627 c 0,-2.920031 3.666666,-5.210859 6.572254,-4.106156 3.798934,1.444352 10.143896,1.452989 11.875166,0.01617 C 109.54794,80.300358 114,82.158564 114,84.778561 114,87.697706 111.9128,89 107.23426,89 c -4.59183,0 -8.194254,1.377644 -9.53395,3.645985 -1.19797,2.028373 -2.545883,1.662288 -5.777233,-1.569062 z M 55.44113,89.567321 c -2.42604,-1.790575 -1.705388,-2.559295 5.967712,-6.365755 8.292679,-4.11382 11.761889,-2.763446 9.3457,3.63777 -0.794891,2.105908 -1.992339,3.158223 -4.065647,3.572885 -4.921392,0.984278 -9.205433,0.662473 -11.247765,-0.8449 z M 118,77.023053 c 0,-0.537321 -1.16107,-1.737708 -2.58015,-2.667527 -2.28888,-1.49973 -3.29589,-1.548314 -8.92028,-0.430363 C 99.355404,75.345196 96,74.736139 96,72.01933 c 0,-1.388626 1.600057,-2.362819 6.4591,-3.932612 9.29227,-3.002021 11.73092,-2.773267 15.43731,1.448078 C 121.18911,73.284974 122.08229,78 119.5,78 118.675,78 118,77.560374 118,77.023053 z M 48,74.654988 c 0,-1.511679 2.387697,-3.822796 5.740969,-5.556839 1.786228,-0.923694 2.873421,-0.831796 5.357704,0.452877 1.744933,0.90234 4.142708,1.354223 5.447746,1.02668 1.282055,-0.321776 2.578494,-0.184609 2.880975,0.304815 0.30248,0.489424 -2.031973,1.212453 -5.187674,1.606732 -3.155701,0.394279 -6.95326,1.345493 -8.439019,2.113809 C 50.385949,76.368898 48,76.390256 48,74.654988 z"
       id="path2995"
       inkscape:connector-curvature="0"
       sodipodi:nodetypes="cscccsssssscssssssssssssssssssssssssssssssssssssssssssccsssssssssssssssssssscssssssssssssssssssssssssssssssssscssssssssssssssssssssssssssssssss" />
    <path
       style="fill:#4e4e4e"
       d="m 41.218208,193.94246 c -0.945014,-1.89335 -2.70301,-3.87474 -3.906657,-4.40309 -2.483172,-1.08999 -3.442477,-3.55403 -2.228323,-5.72361 0.544655,-0.97324 -0.669662,-4.30848 -3.601565,-9.89203 C 29.048864,169.29068 27.043371,164.15 27.025011,162.5 c -0.01836,-1.65 -1.160078,-5.22084 -2.537151,-7.93519 -2.258878,-4.45248 -2.441135,-5.68622 -1.863398,-12.61379 0.419696,-5.03251 0.189044,-9.53472 -0.66932,-13.06481 -1.618121,-6.65465 -1.514482,-8.61066 0.578791,-10.92371 2.398622,-2.65044 1.473043,-5.35321 -2.046144,-5.97491 C 17.759635,111.50563 17.5,111.11392 17.5,107.47988 17.5,103.49066 16.311704,100.93783 10.237783,91.87839 6.0828745,85.681216 4.7553709,74.888527 7.3779635,68.627876 8.2700836,66.498208 9,62.812266 9,60.436893 c 0,-2.375372 0.4739715,-4.61179 1.05327,-4.969816 0.579299,-0.358026 2.087206,-2.988868 3.350905,-5.846316 1.317247,-2.978531 3.53466,-5.994544 5.196729,-7.06833 1.594503,-1.030134 7.012834,-5.96335 12.040737,-10.962701 C 44.932197,17.380323 49.802584,13 51.311162,13 c 0.768236,0 2.610688,-1.125 4.094337,-2.5 2.873316,-2.6628988 6.49825,-3.2015678 9.390358,-1.3954167 1.443128,0.9012487 2.363665,0.5488204 5.000666,-1.9145071 C 73.949929,3.310214 78.912054,2.4915876 86,4.5169082 c 3.025,0.864368 7.3,2.0621186 9.5,2.6616678 2.2,0.5995492 5.575,2.5269818 7.5,4.283183 5.43939,4.962427 11.25952,9.227706 16.02066,11.740735 3.52879,1.862571 5.3707,4.001273 9.72972,11.297506 5.57328,9.328673 9.46642,14.116646 12.17816,14.97732 2.97278,0.943522 4.43546,5.033393 5.19382,14.52268 0.41758,5.225 1.00815,12.340108 1.31239,15.811352 0.40253,4.592718 0.13742,7.115299 -0.97356,9.263695 -0.83969,1.623789 -1.92801,4.85868 -2.41848,7.188648 -0.49048,2.329968 -1.71081,6.376925 -2.71185,8.993235 -1.79662,4.69562 -1.7923,4.81161 0.33527,9 3.52434,6.9381 3.98139,11.67447 2.91839,30.24307 -0.62755,10.96202 -0.64173,11.01105 -4.10712,14.19902 -3.36252,3.09333 -3.4774,3.44113 -3.4774,10.52749 0,5.00218 -0.49224,8.03124 -1.55068,9.54238 -0.85287,1.21764 -1.87196,4.13027 -2.26465,6.4725 -0.58508,3.48982 -1.3105,4.55783 -4.01837,5.91611 -4.60367,2.30922 -7.1663,4.82271 -7.1663,7.02887 0,2.37883 -2.57049,3.41498 -4.49975,1.81384 -1.59483,-1.3236 -6.0313,-0.63429 -8.36082,1.29904 -1.36452,1.13245 -2.18415,1.47235 -13.63943,5.65621 -9.069374,3.31244 -10.148602,3.35542 -14.251294,0.56757 -2.555905,-1.73678 -5.120872,-2.54161 -8.230841,-2.58264 -8.268957,-0.10911 -14.024625,-1.50503 -15.624705,-3.78946 -0.828613,-1.18301 -1.818551,-2.15031 -2.199864,-2.14955 -2.696852,6.77148 -11.616164,4.84372 -13.975088,-5.05892 z m 60.960512,-46.56631 c 2.08242,-1.44312 3.49816,-3.08996 3.14607,-3.65964 -0.35208,-0.56968 -0.57243,-2.76395 -0.48967,-4.87615 0.13683,-3.49192 -0.0816,-3.84036 -2.40688,-3.84036 -2.682536,0 -6.296628,-3.54467 -9.540773,-9.35751 -4.342481,-7.78082 -4.254119,-7.49578 -2.84862,-9.1893 1.606446,-1.93565 5.725537,-1.37737 11.478673,1.55574 2.14795,1.09509 4.77691,1.99107 5.84214,1.99107 1.07333,0 4.27976,2.53763 7.19229,5.69212 l 5.25551,5.69211 3.6959,-2.81899 c 3.16453,-2.41371 3.61257,-3.23557 3.1164,-5.71646 -0.31873,-1.59361 0.0611,-4.79902 0.84416,-7.12313 0.90266,-2.67926 1.50833,-9.34898 1.65505,-18.22565 0.21648,-13.097671 0.0541,-14.48339 -2.5201,-21.5 -1.83865,-5.011788 -2.7075,-9.235207 -2.61891,-12.730283 0.15689,-6.188839 -2.05436,-11.453792 -5.81611,-13.848106 C 116.69873,48.489081 114.6,46.713136 113.5,45.475069 111.21416,42.902321 106.1442,41 101.57328,41 c -1.720546,0 -4.069477,-0.659248 -5.219843,-1.464997 -1.40434,-0.983638 -4.574781,-1.452032 -9.649116,-1.425539 -4.156648,0.0217 -8.520743,-0.476032 -9.697989,-1.106075 -1.713085,-0.916815 -2.66062,-0.804703 -4.745731,0.561514 -2.86838,1.879435 -9.497367,3.944706 -18.864658,5.877313 -7.696557,1.58791 -7.915109,1.735152 -10.952085,7.378553 -1.38496,2.573577 -3.463105,6.176453 -4.618099,8.00639 -1.154993,1.829937 -2.445741,6.104937 -2.868328,9.5 -0.422587,3.395063 -1.482604,9.924102 -2.355594,14.508976 -1.254286,6.587409 -1.354795,9.259317 -0.479126,12.736915 0.609471,2.420428 0.882057,5.86917 0.605747,7.66386 -0.29267,1.90097 0.03013,3.88924 0.773286,4.76309 1.272038,1.49573 2.571834,6.13043 4.907855,17.5 0.678027,3.3 1.763242,7.26679 2.411589,8.8151 C 41.469534,135.8634 42,137.71522 42,138.43024 42,140.469 45.97124,145 47.758129,145 50.157898,145 54,140.96831 54,138.45012 c 0,-3.51683 4.72222,-13.22201 7.23426,-14.86796 1.264163,-0.82831 4.316112,-2.216 6.782109,-3.08375 2.465997,-0.86776 6.1409,-2.9068 8.166451,-4.53121 l 3.682819,-2.95347 2.026047,2.5757 c 1.852254,2.35476 1.908217,2.89029 0.652408,6.24314 -0.755502,2.01708 -1.642708,4.89354 -1.971569,6.39213 -0.442716,2.01741 -1.438281,2.94246 -3.835227,3.56357 -2.246406,0.5821 -3.237298,1.43158 -3.237298,2.7753 0,1.50917 -0.882574,2.04675 -4,2.43643 -5.528061,0.69101 -5.761293,3.36248 -0.723072,8.28218 l 3.853093,3.76244 7.934989,-1.38029 c 6.374774,-1.10889 8.229927,-1.13357 9.43499,-0.12555 1.473808,1.23284 4.090004,2.11612 6.946249,2.34522 0.795438,0.0638 3.150051,-1.06473 5.232471,-2.50785 z M 59.5,90.121865 c -1.70422,-0.364423 -3,-1.285154 -3,-2.131686 0,-1.350651 8.591092,-6.734576 11,-6.893557 4.830608,-0.318804 3.960244,6.395302 -1.103297,8.510985 -1.832856,0.765816 -3.459419,1.339151 -3.614584,1.274078 C 62.626953,90.816612 61.15,90.474693 59.5,90.121865 z M 99.733077,86.615986 C 100.13533,84.511752 100.79988,84 103.13015,84 c 1.59334,0 3.73127,-0.521019 4.75095,-1.157821 2.42362,-1.513576 5.1189,-0.425008 5.1189,2.067419 0,2.589691 -0.48571,2.819766 -7.66826,3.63238 L 99.233,89.231972 z m -9.177304,0.474256 c -0.78126,-1.264104 0.417573,-4.065299 1.801216,-4.208725 4.281045,-0.443766 5.381952,0.644481 3.148559,3.112352 -1.929323,2.131878 -4.023163,2.595663 -4.949775,1.096373 z M 117.23207,75 C 115.83882,72.769047 109.99546,72.280525 104.28683,73.917738 100.20886,75.087285 97,74.258316 97,72.035276 97,69.972972 105.22334,67 110.92774,67 115.19617,67 120,71.132657 120,74.804719 120,77.539605 118.86796,77.619472 117.23207,75 z M 49.229718,73.810846 c 0.791762,-2.375287 5.476912,-5.038733 7.650109,-4.348987 2.944721,0.934618 2.629734,1.760067 -1.445531,3.788141 -4.070202,2.025553 -6.77429,2.269982 -6.204578,0.560846 z"
       id="path2993"
       inkscape:connector-curvature="0"
       sodipodi:nodetypes="cssssssssssssssssssssssssssssssssssssssssssssssccscssssssscsscsssssssssssssssssssssssssscssssssscssssssssssssssscsssssssssssssss" />
    <path
       style="fill:#2d2d2d"
       d="m 81.288221,207.0734 c -3.402443,-2.23858 -5.788275,-2.89264 -12.415843,-3.40372 -6.259827,-0.48273 -8.713251,-1.11101 -10.352672,-2.65117 -2.625091,-2.46614 -3.482131,-2.49657 -7.562481,-0.26851 -4.067324,2.45791 -4.109645,-0.95621 -6.600841,-3.29552 C 43.060373,196.25338 42,194.62019 42,193.82517 c 0,-0.79502 -1.402677,-2.88019 -3.117059,-4.6337 -2.237736,-2.28881 -2.957143,-3.79972 -2.550182,-5.35594 0.336287,-1.28596 -0.173092,-3.21879 -1.252246,-4.75163 C 31.741164,174.34066 28,165.34454 28,162.05788 c 0,-1.78703 -1.0125,-4.66861 -2.25,-6.40351 -1.994344,-2.79595 -2.256893,-4.40424 -2.310664,-14.15437 -0.03336,-6.05 -0.611964,-12.90787 -1.285776,-15.23972 -1.11031,-3.84243 -1.014582,-4.60552 1.021568,-8.14341 1.904051,-3.30836 2.043339,-4.14871 0.913332,-5.51028 C 23.355118,111.72296 21.760211,111 20.544222,111 c -3.045285,0 -3.573507,-0.79277 -2.467133,-3.70276 0.762295,-2.00499 0.437511,-3.31501 -1.647993,-6.64718 C 6.2917849,84.452882 7,86.174092 7,77.734062 7,72.532947 7.5337871,68.86845 8.5885008,66.828858 c 1.0298397,-1.99149 1.3707393,-4.23259 0.9693162,-6.372359 -0.3670081,-1.956322 -0.1777207,-3.573377 0.464769,-3.970458 0.596175,-0.368456 2.129814,-3.034795 3.408087,-5.925197 1.729081,-3.909759 3.827704,-6.414602 8.19673,-9.783328 3.229928,-2.490427 7.880754,-6.94668 10.335169,-9.902783 2.454415,-2.956103 5.154415,-5.784946 6,-6.286316 0.845585,-0.501371 3.699844,-3.088871 6.342798,-5.75 C 46.948323,16.177287 49.698946,14 50.417865,14 c 0.718919,0 3.00588,-1.35 5.082135,-3 4.42093,-3.5133134 6.514923,-3.7459792 9,-1 2.403139,2.655439 3.175336,2.528511 4.899324,-0.8053147 2.617212,-5.0611293 9.370509,-6.5148305 17.815729,-3.8349782 2.356721,0.7478389 6.252442,1.9073795 8.657159,2.5767569 2.404716,0.6693775 5.554718,2.414922 6.999998,3.878988 3.98204,4.033792 14.04781,11.260706 17.2284,12.369464 1.99889,0.696817 3.90727,2.926958 6.54572,7.64933 5.4682,9.787183 10.21698,16.043706 13.44393,17.712427 3.96344,2.049577 5.04024,4.570196 5.47402,12.813787 0.20663,3.926747 0.79069,10.51454 1.29792,14.63954 0.87007,7.075809 0.7662,7.839353 -1.83644,13.5 -1.51726,3.3 -3.43362,8.925 -4.25856,12.5 -1.33042,5.76553 -1.3313,6.89548 -0.008,10 0.82066,1.925 1.85821,5.63628 2.30566,8.24729 0.44746,2.61102 1.09712,5.2061 1.44368,5.76686 0.34657,0.56076 0.10429,7.19948 -0.53839,14.75271 -1.15825,13.61233 -1.19845,13.7643 -4.56944,17.2753 C 136.13818,162.4404 136,162.89511 136,170.23315 c 0,4.20685 -0.41717,7.90664 -0.92704,8.22176 -0.50988,0.31512 -1.44123,2.25418 -2.06968,4.30902 C 131.30127,188.32905 129.81094,191 128.40775,191 126.59728,191 121,195.93396 121,197.52988 c 0,2.0411 -1.72061,2.69001 -3.95786,1.49267 -1.60438,-0.85863 -3.43522,-0.40053 -9.27067,2.31967 -3.99931,1.86428 -9.74647,4.17928 -12.77147,5.14444 -3.025,0.96517 -6.281394,2.15051 -7.236431,2.63409 -2.102809,1.06477 -1.414392,1.28243 -6.475348,-2.04735 z m 5.956703,-50.231 c -0.721873,-2.80509 -1.373337,-3.39277 -4.052535,-3.65576 C 80.351302,152.90777 80,153.15536 80,155.43664 80,157.26156 80.531505,158 81.845012,158 c 1.014757,0 2.690748,0.93453 3.724425,2.07673 2.247598,2.48356 2.848461,1.32367 1.675487,-3.23433 z m -12.31775,-4.85172 c 3.317422,-3.88025 12.011196,-5.84768 15.388121,-3.48239 3.004003,2.10408 7.931291,1.85231 12.733315,-0.65065 3.37254,-1.75786 3.9952,-2.52061 3.46943,-4.25 -0.35242,-1.1592 -0.72565,-3.67787 -0.8294,-5.59704 -0.16436,-3.04023 -0.57482,-3.55513 -3.18864,-4 -2.29127,-0.38997 -3.214838,-1.23859 -3.909386,-3.5921 -0.500163,-1.69482 -1.839109,-3.49482 -2.975436,-4 -3.238492,-1.43973 -6.860393,-7.41811 -5.492604,-9.06619 1.472758,-1.77457 5.899014,-1.72592 8.496431,0.0934 1.135209,0.79514 4.174155,1.97704 6.753205,2.62645 3.74936,0.9441 5.6093,2.25775 9.27997,6.55431 2.52492,2.95545 5.40344,5.37355 6.39671,5.37355 3.02162,0 5.95111,-4.75866 5.95111,-9.66698 0,-2.41849 0.64404,-5.93865 1.43119,-7.82258 1.28007,-3.06364 2.05519,-14.34546 1.78734,-26.014572 -0.0505,-2.202272 -1.42716,-8.052272 -3.05913,-13 -1.63197,-4.947727 -3.15367,-11.836034 -3.38157,-15.307349 -0.40679,-6.196376 -0.51946,-6.411687 -6.1784,-11.806045 -6.35896,-6.061654 -8.92932,-7.379255 -14.41453,-7.389063 -2.02795,-0.0036 -5.033876,-0.913874 -6.6849,-2.024308 -2.524913,-1.698187 -3.972273,-1.918112 -9.139547,-1.388742 -3.994274,0.4092 -7.376851,0.181561 -9.680583,-0.65148 -3.134942,-1.133609 -4.036398,-1.042459 -7.860453,0.794807 -5.698734,2.737954 -10.333157,4.121875 -16.366345,4.88728 -6.356081,0.80637 -8.727843,2.335355 -10.957901,7.064143 C 41.503089,51.7788 39.669662,54.85 38.420889,56.5 c -2.562223,3.385459 -3.755187,7.996413 -5.433199,21 -0.63876,4.95 -1.57437,10.038216 -2.079135,11.307147 -0.576914,1.450309 -0.544661,3.004278 0.08685,4.184259 C 31.54793,94.023817 32,97.561633 32,100.85322 c 0,3.29159 0.631949,7.25867 1.404332,8.81574 1.735502,3.49866 3.526453,10.23203 4.476744,16.83104 0.396014,2.75 1.232596,5.9 1.859071,7 0.626476,1.1 1.394441,3.21614 1.706589,4.70254 1.019361,4.85401 4.647482,7.99135 9.731204,8.41485 6.847583,0.57044 8.287849,-1.7954 4.355526,-7.15457 -1.359812,-1.85322 -1.234992,-2.58652 1.382275,-8.12073 3.157314,-6.67614 5.550719,-8.84207 11.567752,-10.4683 2.190921,-0.59214 5.513989,-2.42042 7.384596,-4.06283 3.360264,-2.95035 3.424285,-2.96303 5.331561,-1.05575 1.907277,1.90727 1.906619,2.00107 -0.05481,7.81103 -1.091898,3.23431 -2.583672,6.03794 -3.315053,6.23029 -3.214925,0.84548 -5.698191,2.59225 -6.151935,4.32737 C 71.331413,135.44868 70.278133,136 68.09362,136 66.392129,136 65,136.4132 65,136.91821 c 0,0.50502 -0.254321,1.58097 -0.565159,2.39099 -0.321841,0.83871 0.800695,3.02841 2.607338,5.08606 2.457494,2.79893 3.028722,4.18611 2.534564,6.15499 -1.293841,5.15508 1.525634,5.91413 5.350431,1.44043 z M 59.35674,88.487265 c -0.800238,-2.085384 0.856136,-3.80086 5.179344,-5.364153 4.419764,-1.598207 5.961422,-0.561852 4.577799,3.077354 -1.373508,3.612598 -8.598586,5.305953 -9.757143,2.286799 z M 101.24379,86.75 C 101.88103,84.809329 107,84.527937 107,86.433578 107,87.516788 106.04885,88 103.91667,88 c -2.01891,0 -2.94164,-0.431524 -2.67288,-1.25 z M 97.458881,72.933469 c -0.896299,-1.450243 -0.510559,-1.721504 5.650209,-3.973343 7.40916,-2.70814 9.99034,-2.509561 13.38092,1.029443 3.31095,3.455892 2.93701,4.617748 -0.92053,2.860135 -2.10118,-0.957361 -3.94598,-0.965545 -8.43942,-0.03744 -7.08614,1.463617 -8.82803,1.485448 -9.671179,0.121205 z"
       id="path2991"
       inkscape:connector-curvature="0"
       sodipodi:nodetypes="sssccsssssssssssssssssssssssssssssssssssscscscssssssssssssssssssssssssssssssscssscssssssssssssssssssssssssssssssssssssssssssss" />
    <path
       style="fill:#050505"
       d="m 80.94202,205.95386 c -1.722324,-1.38543 -4.499152,-2.2007 -8.5,-2.49556 -8.698736,-0.6411 -11.674217,-1.42823 -14.212445,-3.75977 -2.051806,-1.88472 -2.610139,-1.96269 -5.798439,-0.80979 -4.159697,1.50417 -5.271562,0.86108 -9.291513,-5.37406 C 39.219216,187.43393 38,184.94453 38,183.02055 c 0,-0.96296 -0.891002,-2.88356 -1.980005,-4.268 -2.720962,-3.45914 -4.187902,-7.53074 -2.981784,-8.27617 1.657222,-1.02422 1.055459,-2.23605 -1.418719,-2.85703 -2.665839,-0.66909 -3.991633,-4.05548 -2.603335,-6.64954 0.502412,-0.93876 0.667849,-1.95247 0.367639,-2.25268 -0.798023,-0.79802 1.637376,-5.00691 3.774903,-6.52383 1.788042,-1.26891 2.506223,-5.19504 1.190899,-6.51037 C 33.596878,144.93021 29,149.60317 29,151.12107 c 0,0.55992 -1.0125,0.87423 -2.25,0.69848 -2.004315,-0.28466 -2.283426,-0.97016 -2.55612,-6.27788 -0.413981,-8.05774 0.363952,-10.89056 2.814701,-10.24968 2.665941,0.69716 4.111134,-1.44342 3.394307,-5.02755 -0.353211,-1.76606 -0.146932,-3.3046 0.496368,-3.70218 2.19686,-1.35773 1.014614,-3.45556 -2.927597,-5.19486 -2.924684,-1.29037 -3.852507,-2.20061 -3.386547,-3.32235 1.575346,-3.79247 1.549307,-5.23904 -0.127663,-7.09207 -1.105247,-1.22128 -2.495814,-1.75819 -3.62523,-1.39973 -2.155207,0.68404 -2.218209,0.38801 -0.64996,-3.05392 1.052535,-2.31006 0.880617,-2.89128 -1.566812,-5.29705 C 17.103459,99.716025 14.140202,95.8 12.030433,92.5 7.2175653,84.971945 5.7987837,75.803164 8.4631023,69.446368 c 0.9097208,-2.170502 1.7228397,-5.622239 1.8069307,-7.670525 0.08409,-2.048286 0.679568,-3.926262 1.323284,-4.173278 0.643715,-0.247017 1.726623,-2.767758 2.406463,-5.601648 1.090224,-4.544561 1.959616,-5.722273 7.368146,-9.981164 3.372641,-2.655751 8.733343,-7.779331 11.912672,-11.385734 3.179329,-3.606403 7.055836,-7.310398 8.614459,-8.231099 1.558623,-0.920701 3.574818,-2.928345 4.480434,-4.461429 0.942783,-1.596006 2.870461,-3.056237 4.509959,-3.416332 1.574862,-0.345897 3.898339,-1.730562 5.163282,-3.077032 2.962055,-3.1529624 6.272884,-3.1324174 8.359311,0.05187 2.313153,3.530317 4.130747,3.109942 5.923238,-1.369934 0.851642,-2.1284631 2.287307,-4.1534631 3.190367,-4.4999996 2.834865,-1.0878397 10.233749,-0.6881213 14.693405,0.7937987 2.356721,0.7831258 6.19865,1.9257946 8.537621,2.5392641 2.632621,0.6904886 4.885256,2.0808448 5.913226,3.6497158 1.91274,2.919216 12.3868,10.372291 16.82461,11.971973 1.65522,0.59665 3.68449,2.39665 4.50949,4 4.53632,8.816132 12.09023,19.307825 15.35352,21.32465 4.51119,2.788072 5.27994,5.548395 6.18595,22.211768 0.48213,8.867349 0.35524,12.8258 -0.42662,13.309017 C 144.50078,85.808533 144,87.034545 144,88.154725 c 0,1.12018 -0.62888,3.231122 -1.39752,4.690983 -2.72496,5.175483 -3.82338,10.780712 -3.1833,16.244412 0.34857,2.97544 0.73539,6.98488 0.85959,8.90988 0.1242,1.925 1.01057,4.6559 1.96972,6.06866 2.10834,3.10548 2.19049,4.74144 0.85022,16.93134 -0.57449,5.225 -1.05671,10.5275 -1.07161,11.78333 -0.0149,1.25584 -1.58605,3.84228 -3.49143,5.74766 -3.32713,3.32714 -3.46282,3.75215 -3.42637,10.73254 0.0329,6.30987 -0.40029,8.12177 -3.28568,13.74183 -2.20578,4.29635 -4.50078,7.20716 -6.82362,8.65461 -1.925,1.19954 -4.44736,3.11676 -5.60524,4.2605 -1.15788,1.14374 -3.12161,2.07953 -4.36385,2.07953 -1.24223,0 -3.89487,0.86887 -5.89476,1.93082 -6.32482,3.35851 -17.487004,7.33974 -21.63615,7.71699 -2.931251,0.26651 -4.68346,-0.18609 -6.55798,-1.69395 z M 95.361626,172.5 c 0.702788,-1.83144 -0.07301,-3.97991 -2.991011,-8.28321 -1.224461,-1.80577 -2.533848,-4.73077 -2.909748,-6.5 C 88.622731,153.77197 86.30511,151 83.845012,151 c -2.940206,0 -2.134876,-1.77742 1.13026,-2.49457 3.659297,-0.80372 7.456414,1.55482 7.496663,4.65646 0.04092,3.1534 2.310045,3.41072 3.674229,0.41666 C 96.79234,152.16035 97.723487,151 98.215379,151 c 0.491892,0 2.923971,-0.9246 5.404611,-2.05466 l 4.51026,-2.05466 -0.68852,-5.69534 C 106.68557,134.94042 105.64238,133 103.03584,133 c -1.1394,0 -2.12346,-1.34909 -2.91769,-4 -0.843204,-2.81435 -1.75301,-4 -3.069398,-4 -2.131831,0 -7.354755,-5.69586 -6.496422,-7.08467 0.89163,-1.44269 3.143652,-1.10549 11.4885,1.72019 7.30681,2.47418 8.13293,3.06056 13.49563,9.57922 5.12205,6.22614 5.59929,7.19191 4.61808,9.34543 -0.91596,2.0103 -0.78494,2.56726 0.80392,3.4176 1.59597,0.85414 2.15028,0.51063 3.48126,-2.15739 0.87068,-1.74531 1.32974,-3.9714 1.02014,-4.94686 -0.3096,-0.97546 0.13528,-3.12371 0.98861,-4.77388 0.85334,-1.65018 1.55153,-5.21771 1.55153,-7.92786 0,-2.71014 0.61124,-6.44499 1.35832,-8.29966 0.86803,-2.15494 1.39448,-7.88403 1.4585,-15.87212 0.0985,-12.288014 -0.63305,-16.774051 -4.44689,-27.270236 C 125.61647,68.656134 125,64.700706 125,61.939925 125,56.10014 122.03257,49.4625 118.99013,48.496867 c -1.12388,-0.356705 -2.79841,-1.800819 -3.72118,-3.209142 -2.05127,-3.13064 -6.93009,-5.285504 -11.98683,-5.294314 -2.11447,-0.0037 -5.104912,-0.891907 -6.78212,-2.014428 -2.548873,-1.705908 -3.991538,-1.913366 -9.593735,-1.379598 -4.83013,0.460207 -7.333904,0.240427 -9.361061,-0.821708 -2.422948,-1.269511 -3.344612,-1.265036 -7.406264,0.03595 -2.551417,0.817247 -5.833371,2.093507 -7.293232,2.836136 C 61.385847,39.392395 59.10351,40 57.773847,40 53.712305,40 46.022366,43.085591 44.427791,45.35511 37.510003,55.201027 34.924961,60.112851 34.069525,65.036793 31.368875,80.581896 30.771399,84.882376 30.740258,89 c -0.05255,6.948333 0.855974,18.33151 1.596253,20 1.180811,2.66138 3.765194,12.35928 4.663555,17.5 1.061753,6.07569 4.424663,14.88337 7.1372,18.69277 1.720116,2.41568 2.675409,2.80723 6.849041,2.80723 2.667565,0 5.561922,-0.27314 6.431906,-0.60699 2.021191,-0.7756 2.076088,-5.73789 0.08179,-7.39301 -2.044277,-1.6966 -1.884555,-4.15497 0.602551,-9.27418 2.352644,-4.84245 6.659123,-8.18527 11.897449,-9.23515 1.925,-0.38582 4.710636,-1.8375 6.190302,-3.22597 1.590388,-1.49237 3.327975,-2.2798 4.25,-1.92598 3.494337,1.3409 0.365727,6.66128 -3.917117,6.66128 -1.283677,0 -4.21911,1.575 -6.523185,3.5 -2.304075,1.925 -4.766551,3.5 -5.472169,3.5 -1.894569,0 -3.875039,2.66738 -2.576389,3.46999 C 62.528149,133.82641 63,135.47106 63,137.12476 c 0,3.39542 1.561092,6.80716 3.913343,8.55255 1.010003,0.74943 1.586657,2.70324 1.586657,5.3759 0,2.73619 0.52246,4.4566 1.5,4.93933 2.638792,1.30312 8.413337,3.22043 11.25,3.73531 1.5125,0.27453 2.75,0.89678 2.75,1.38277 0,0.48599 1.575,2.62696 3.5,4.7577 1.925,2.13074 3.5,4.29204 3.5,4.80288 0,1.0846 2.085238,3.3288 3.093011,3.3288 0.381156,0 0.952033,-0.675 1.268615,-1.5 z M 61.708443,87.25 C 62.991033,83.773735 67,82.745659 67,85.893011 67,87.75528 65.17702,89 62.449597,89 61.549505,89 61.289382,88.385802 61.708443,87.25 z M 99,72.080367 c 0,-1.264837 9.44713,-4.299983 12.14832,-3.902978 4.2729,0.628004 2.80614,2.431865 -2.94295,3.619319 C 101.22055,73.2394 99,73.307825 99,72.080367 z"
       id="path2989"
       inkscape:connector-curvature="0"
       sodipodi:nodetypes="sssssssssssssssssssssssssssssssssssssssssssssssssssssssssssssssssssssssscsssssssssssssssssssssssssssssssssssssssssssssssssssssssssssss" />
  </g>
</svg>
